<?xml version="1.0" encoding="UTF-8"?>
<svg id="Layer_2" data-name="Layer 2" xmlns="http://www.w3.org/2000/svg" viewBox="0 0 110.12 116.22">
  <defs>
    <style>
      .cls-1 {
        fill: #eb2d4b;
      }
    </style>
  </defs>
  <g id="Layer_1-2" data-name="Layer 1">
    <path class="cls-1" d="M24.09,35.33s20.4,9.04,20.44,9.06c1.2.54,2.54.8,3.93.57,3.68-.59,6.19-4.12,5.61-7.88-.44-2.86-2.54-5.03-5.15-5.63-.05,0-21.82-4.95-21.86-4.96-.59-.15-1.22-.19-1.85-.09-2.5.4-4.21,2.81-3.81,5.36.25,1.64,1.32,2.91,2.7,3.56"/>
    <path class="cls-1" d="M49.07,20.47c-.77,1.3-1.07,2.89-.57,4.44.87,2.73,3.75,4.23,6.42,3.34.89-.29,1.63-.81,2.22-1.47.03-.04,12.75-15.11,12.78-15.15,1.57-1.86,2.31-4.38,1.53-6.87-1.15-3.61-4.96-5.6-8.5-4.42-1.58.53-2.86,1.58-3.65,2.94-.22.37-10.19,17.15-10.22,17.19"/>
    <path class="cls-1" d="M85.78,45.47c-1.45-.34-3.02-.14-4.31.82-2.27,1.69-2.77,4.95-1.12,7.27.55.77,1.27,1.33,2.06,1.69.04.02,18.03,7.68,18.07,7.7,2.22.95,4.8.89,6.87-.65,3.01-2.24,3.67-6.55,1.48-9.62-.98-1.37-2.37-2.28-3.87-2.63-.42-.1-19.13-4.56-19.18-4.58"/>
    <path class="cls-1" d="M73.87,88.77c-.13-1.51-.8-2.97-2.09-3.93-2.27-1.69-5.46-1.17-7.12,1.15-.55.77-.85,1.64-.94,2.52,0,.05-1.61,19.88-1.62,19.92-.2,2.45.65,4.94,2.72,6.47,3.01,2.24,7.23,1.55,9.42-1.53.98-1.37,1.4-3,1.26-4.57-.03-.44-1.63-19.99-1.63-20.04"/>
    <path class="cls-1" d="M29.8,90.67c1.37-.59,2.52-1.69,3.02-3.24.87-2.73-.59-5.67-3.27-6.56-.89-.29-1.79-.32-2.64-.14-.05,0-19.01,4.55-19.06,4.56-2.34.56-4.4,2.15-5.2,4.64-1.15,3.62.78,7.5,4.32,8.68,1.59.53,3.23.44,4.65-.18.39-.17,18.12-7.74,18.17-7.76"/>
    <path class="cls-1" d="M14.47,48.41c.97,1.15,2.36,1.93,3.96,1.93,2.81,0,5.09-2.33,5.09-5.21,0-.95-.25-1.84-.69-2.61-.02-.04-10.14-17.04-10.16-17.09-1.25-2.1-3.37-3.6-5.93-3.6C3.02,21.84,0,24.92,0,28.72,0,30.43.59,31.99,1.61,33.18c.28.33,12.83,15.19,12.86,15.23"/>
    <path class="cls-1" d="M64.23,25.77s-2.13,22.6-2.14,22.65c-.13,1.34.04,2.71.68,4,1.69,3.39,5.75,4.74,9.07,3.01,2.52-1.31,3.9-4.02,3.65-6.74,0-.05-2.12-22.71-2.13-22.76-.04-.62-.2-1.24-.49-1.83-1.15-2.31-3.91-3.22-6.17-2.05-1.45.75-2.3,2.18-2.48,3.72"/>
    <path class="cls-1" d="M85.53,61.79s-21.71,4.94-21.76,4.95c-1.29.29-2.52.88-3.51,1.9-2.63,2.69-2.63,7.05,0,9.74,2.01,2.04,4.96,2.54,7.41,1.46.04-.02,20.49-9.1,20.54-9.12.56-.23,1.1-.58,1.55-1.04,1.79-1.83,1.79-4.79,0-6.62-1.15-1.17-2.74-1.56-4.23-1.26"/>
    <path class="cls-1" d="M58.57,93.62s-11.29-19.56-11.31-19.61c-.66-1.16-1.59-2.17-2.85-2.82-3.32-1.73-7.38-.38-9.07,3-1.29,2.58-.84,5.6.92,7.65.03.04,14.79,17.1,14.83,17.14.39.48.88.89,1.45,1.19,2.26,1.17,5.02.26,6.17-2.05.74-1.48.61-3.15-.13-4.5"/>
    <path class="cls-1" d="M20.59,77.28s14.74-17,14.77-17.04c.88-1,1.53-2.22,1.75-3.64.59-3.76-1.92-7.28-5.6-7.88-2.79-.46-5.47.91-6.83,3.25-.02.04-11.36,19.65-11.39,19.69-.33.52-.55,1.12-.66,1.77-.4,2.55,1.31,4.96,3.81,5.36,1.6.26,3.12-.38,4.15-1.52"/>
  </g>
</svg>